<svg xmlns="http://www.w3.org/2000/svg" viewBox="0 0 24 24" focusable="false" aria-hidden="true">
    <path fill="#ff6200" d="M5 11V7h2v2h2V7h2v2h2V7h2v2h2V7h2v4H5zm11.484 7.803c0 .077-.046.115-.139.115h-3.378c-.088 0-.132-.038-.132-.115v-.765c0-.082.044-.123.132-.123h1.085v-3.609l-.953.387c-.071.027-.166.063-.223-.074-.235-.534-.296-.639-.296-.723 0-.061.044-.11.132-.148 1.612-.678 1.618-.687 1.759-.719.159-.038.359-.029.715-.029.144 0 .14.085.14.148v4.767h1.019c.093 0 .139.041.139.123v.765zm-5.535-.263c-.408.307-.933.46-1.574.46-.378 0-.729-.05-1.052-.147-.323-.1-.578-.223-.764-.371-.044-.033-.067-.069-.067-.107 0-.017.009-.041.026-.074l.32-.665c.021-.056.052-.083.091-.083.015 0 .046.011.09.033.416.252.849.379 1.298.379.286 0 .51-.069.674-.206.165-.137.247-.326.247-.567 0-.231-.052-.397-.156-.502a.699.699 0 00-.407-.193 5.145 5.145 0 00-.695-.037h-.336c-.067 0-.132-.015-.132-.132v-.452c0-.12.007-.204.02-.25.034-.116-.002-.055 1.353-1.558H8.052c-.094 0-.14-.041-.14-.123v-.83c0-.077.046-.115.14-.115h3.132c.051 0 .13.001.13.14 0 .572 0 .616-.078.797-.098.23-.146.253-1.351 1.594.498.055.902.21 1.212.465.309.255.465.629.465 1.122 0 .641-.205 1.114-.613 1.422zM19 5h-2V3h-2v2h-2V3h-2v2H9V3H7v2H5c-1.103 0-2 .897-2 2v12c0 1.103.897 2 2 2h14c1.103 0 2-.897 2-2V7c0-1.103-.897-2-2-2z"></path>
</svg>