<?xml version="1.0" encoding="UTF-8"?>
<svg id="Ebene_1" data-name="Ebene 1" xmlns="http://www.w3.org/2000/svg" viewBox="0 0 160 160">
  <defs>
    <style>
      .cls-1 {
        fill: #f7e5cd;
      }

      .cls-1, .cls-2, .cls-3, .cls-4, .cls-5, .cls-6 {
        stroke-width: 0px;
      }

      .cls-2 {
        fill: #463ec5;
      }

      .cls-3 {
        fill: #232144;
      }

      .cls-4 {
        fill: #bac09a;
      }

      .cls-5 {
        fill: #fff;
      }

      .cls-6 {
        fill: #e73245;
      }
    </style>
  </defs>
  <path class="cls-3" d="m117.49,69.45c-.84,0-1.66.04-2.48.12v-21.25c0-2.44-.5-4.75-1.41-6.86v-8.72l-1.1-.61,1.1-1.3v-6.93l-8.04,8.93c-2.38-1.23-5.08-1.92-7.94-1.92h0c-2.89,0-5.62.71-8.02,1.96l-7.85-9.03v17.35c-.98,2.17-1.52,4.58-1.52,7.12v74.14h34.78v-.12c.82.08,1.64.12,2.48.12,14.64,0,26.51-11.87,26.51-26.51s-11.87-26.51-26.51-26.51Z"/>
  <path class="cls-5" d="m95,46.73s-2.79.74-5.16-.46-3.43-3.88-3.43-3.88c0,0,2.79-.74,5.16.46s3.43,3.88,3.43,3.88Z"/>
  <circle class="cls-4" cx="90.67" cy="44.53" r="1.92"/>
  <path class="cls-3" d="m90.69,42.62s.76.85.76,1.91-.76,1.91-.76,1.91c0,0-.76-.85-.76-1.91s.76-1.91.76-1.91Z"/>
  <path class="cls-5" d="m100.17,46.73s2.79.74,5.16-.46,3.43-3.88,3.43-3.88c0,0-2.79-.74-5.16.46s-3.43,3.88-3.43,3.88Z"/>
  <circle class="cls-4" cx="104.48" cy="44.56" r="1.91"/>
  <path class="cls-3" d="m104.48,42.65s-.76.86-.76,1.91.76,1.91.76,1.91c0,0,.76-.86.76-1.91s-.76-1.91-.76-1.91Z"/>
  <rect class="cls-2" x="16" y="118.19" width="119.97" height="5.13" rx="2.56" ry="2.56"/>
  <path class="cls-2" d="m31.38,53.42h89.12c2.19,0,3.97,1.78,3.97,3.97v61.82H27.41v-61.82c0-2.19,1.78-3.97,3.97-3.97Z"/>
  <rect class="cls-1" x="29.8" y="57.63" width="92.29" height="60.56"/>
  <path class="cls-6" d="m48.6,91.31h8.73v-7.55c0-.45.24-.53.65-.53h1.95c.41,0,.65.08.65.53v7.55h3.17c.45,0,.53.24.53.65v1.46c0,.41-.08.65-.53.65h-3.17v7.23c0,.45-.24.53-.65.53h-1.95c-.41,0-.65-.08-.65-.53v-7.23h-11.9c-.45,0-.53-.24-.53-.65v-.57c0-1.01.16-1.54.57-2.44l7.67-17.3c.16-.37.32-.53.73-.53h2.35c.41,0,.57.2.41.57l-8.04,18.15Z"/>
  <path class="cls-6" d="m68.04,87.86c0-10.19,3.74-15.67,9.99-15.67,5.68,0,9.3,4.38,9.3,14.33s-3.61,15.71-9.99,15.71c-5.72,0-9.3-4.63-9.3-14.37Zm16.12-1.18c0-7.67-2.23-11.81-6.29-11.81s-6.62,4.3-6.62,12.71c0,7.67,2.11,11.98,6.25,11.98s6.66-4.55,6.66-12.87Z"/>
  <path class="cls-6" d="m94.31,91.31h8.73v-7.55c0-.45.24-.53.65-.53h1.95c.41,0,.65.08.65.53v7.55h3.17c.45,0,.53.24.53.65v1.46c0,.41-.08.65-.53.65h-3.17v7.23c0,.45-.24.53-.65.53h-1.95c-.41,0-.65-.08-.65-.53v-7.23h-11.9c-.45,0-.53-.24-.53-.65v-.57c0-1.01.16-1.54.57-2.44l7.67-17.3c.16-.37.32-.53.73-.53h2.35c.41,0,.57.2.41.57l-8.04,18.15Z"/>
  <path class="cls-3" d="m76.52,51h2.88c1.16,0,2.09.94,2.09,2.09v11.92c0,1.95-1.58,3.54-3.54,3.54h0c-1.95,0-3.54-1.58-3.54-3.54v-11.92c0-1.16.94-2.09,2.09-2.09Z"/>
  <path class="cls-3" d="m94.96,118.19c-10.52,0-19.1-8.47-19.14-19-.04-8.77,5.86-16.21,13.91-18.5.66-.19,2.05-.34,3.48-.46,2.34-.2,4.34,1.65,4.36,3.99h0c0,2.05-1.53,3.78-3.57,4.02-1.49.17-3.02.4-3.65.69-3.89,1.77-6.59,5.69-6.57,10.23.03,6.15,5.04,11.13,11.18,11.13.02,0,.03,0,.05,0l36.14-.16.03,8.06-36.14.06s-.06-.06-.09-.06Z"/>
</svg>