<?xml version="1.0" encoding="UTF-8"?>
<svg xmlns="http://www.w3.org/2000/svg" viewBox="0 0 1200 840">
  <defs>
    <style>
      .cls-1, .cls-2, .cls-3, .cls-4, .cls-5, .cls-6, .cls-7, .cls-8, .cls-9, .cls-10 {
        stroke-width: 0px;
      }

      .cls-2 {
        fill: #f7e5cd;
      }

      .cls-3 {
        fill: #f5836d;
      }

      .cls-4 {
        fill: #7070ff;
      }

      .cls-5 {
        fill: #191414;
      }

      .cls-6 {
        fill: #232144;
      }

      .cls-7 {
        fill: #d8cbc5;
      }

      .cls-8 {
        fill: #d96b55;
      }

      .cls-9 {
        fill: #fff;
      }

      .cls-10 {
        fill: #fbb03b;
      }
    </style>
  </defs>
  <g id="table">
    <polygon class="cls-7" points="1184 216.86 495.2 216.86 495.2 265.96 665.6 265.96 665.6 824 696.06 824 696.06 265.96 1184 265.96 1184 216.86"/>
  </g>
  <g id="Ebene_3" data-name="Ebene 3">
    <path class="cls-2" d="m52.46,239.14h301.66c5.98,0,10.84,4.86,10.84,10.84v195.84H41.62v-195.84c0-5.98,4.86-10.84,10.84-10.84Z" transform="translate(-134.68 131.79) rotate(-27.37)"/>
    <rect class="cls-6" x="57.37" y="258.98" width="296.11" height="175.25" transform="translate(-136.34 133.23) rotate(-27.37)"/>
    <path class="cls-2" d="m447.51,410.06l-334.98,173.4c-7.94,4.11-17.17-2.59-15.73-11.42l10.4-63.46,287.15-148.64,53.61,31.05c7.43,4.3,7.18,15.13-.45,19.07Z"/>
    <polygon class="cls-7" points="406.78 397.35 120.96 545.3 125.59 501.24 373.55 372.37 406.78 397.35"/>
    <rect class="cls-7" x="90.32" y="483.3" width="368.4" height="3.39" transform="translate(-192.15 180.36) rotate(-27.35)"/>
    <circle class="cls-6" cx="158.29" cy="261.46" r="4.47"/>
    <rect class="cls-10" x="85.63" y="340.15" width="102.52" height="79.18" transform="translate(-159.25 105.43) rotate(-27.37)"/>
    <rect class="cls-9" x="147.55" y="277.45" width="134.89" height="153.22" transform="translate(-138.7 138.46) rotate(-27.37)"/>
    <rect class="cls-6" x="131.44" y="313.68" width="36.63" height="3.46" transform="translate(-128.23 104.14) rotate(-27.37)"/>
    <rect class="cls-6" x="132.26" y="305.26" width="118.94" height="3.46" transform="translate(-119.67 122.5) rotate(-27.37)"/>
    <rect class="cls-6" x="136.24" y="314.27" width="108.07" height="3.46" transform="translate(-123.97 122.84) rotate(-27.37)"/>
    <rect class="cls-6" x="150.13" y="322.79" width="79.22" height="3.46" transform="translate(-127.95 123.55) rotate(-27.37)"/>
    <rect class="cls-6" x="144.02" y="331.6" width="89.26" height="3.46" transform="translate(-132.12 124.03) rotate(-27.37)"/>
    <rect class="cls-6" x="147.39" y="338.11" width="89.26" height="3.46" transform="translate(-134.73 126.31) rotate(-27.37)"/>
    <rect class="cls-6" x="150.75" y="344.61" width="89.26" height="3.46" transform="translate(-137.35 128.58) rotate(-27.37)"/>
    <rect class="cls-6" x="163.6" y="348.81" width="79.22" height="3.46" transform="translate(-138.4 132.65) rotate(-27.37)"/>
    <rect class="cls-6" x="157.48" y="357.63" width="89.26" height="3.46" transform="translate(-142.57 133.13) rotate(-27.37)"/>
    <rect class="cls-6" x="160.85" y="364.13" width="89.26" height="3.46" transform="translate(-145.19 135.41) rotate(-27.37)"/>
    <rect class="cls-6" x="164.21" y="370.64" width="89.26" height="3.46" transform="translate(-147.8 137.68) rotate(-27.37)"/>
    <rect class="cls-6" x="167.58" y="377.14" width="89.26" height="3.46" transform="translate(-150.42 139.96) rotate(-27.37)"/>
    <rect class="cls-6" x="269.38" y="392.44" width="31.74" height="3.46" transform="translate(-149.27 175.25) rotate(-27.37)"/>
    <rect class="cls-4" x="213.13" y="286.29" width="115.07" height="88.86" transform="translate(-121.74 161.44) rotate(-27.37)"/>
    <circle class="cls-5" cx="263.73" cy="299.55" r="8.17"/>
    <polygon class="cls-3" points="295.96 341.72 312.1 359.3 322.42 353.95 300.08 324.15 295.96 341.72"/>
    <polygon class="cls-3" points="265.03 357.74 270.05 381.07 259.73 386.41 248.3 350.95 265.03 357.74"/>
    <polygon class="cls-6" points="272.58 379.5 251.98 341.74 289.64 322.25 309.19 361.41 272.58 379.5"/>
    <path class="cls-6" d="m248.34,356.03c-2.97-4.82-1.48-11.13,3.34-14.1,4.81-2.97,11.13-1.48,14.1,3.34,2.97,4.82.85,15.71.85,15.71,0,0-15.31-.13-18.29-4.95Z"/>
    <rect class="cls-5" x="252.17" y="314.7" width="22.54" height="6.57" transform="translate(-116.69 156.69) rotate(-27.37)"/>
    <circle class="cls-3" cx="271.77" cy="311.91" r="3.01"/>
    <circle class="cls-3" cx="253.65" cy="321.28" r="3.01"/>
    <path class="cls-8" d="m263.87,335l-4.43-8.56,13-7.21,4.63,8.95c1.89,3.64.46,8.13-3.18,10.01h0c-3.64,1.89-8.13.46-10.01-3.18Z"/>
    <rect class="cls-3" x="252.37" y="300.75" width="19.69" height="29.75" rx="7.94" ry="7.94" transform="translate(-115.7 155.77) rotate(-27.35)"/>
    <path class="cls-1" d="m266.34,323.55c-.39-.75-1.48-.05-1.48-.05l-2.59,1.34c-.05-.16,6.53,3.67,7.47-3.87l-2.59,1.34s-1.2.49-.81,1.24h0Z"/>
    <path class="cls-5" d="m255.93,314.53l-.11.06c-1.12.59-1.88,1.69-2.06,2.99h0l5.8-3.04h0c-1.17-.59-2.51-.59-3.63,0h0Z"/>
    <path class="cls-5" d="m264.63,309.6l-.11.06c-1.1.62-1.82,1.76-1.96,3.06h0l5.7-3.24h0c-1.19-.55-2.53-.5-3.63.12h0Z"/>
    <circle class="cls-1" cx="257.84" cy="318.74" r="1.19"/>
    <path class="cls-1" d="m260.71,318.44c-1.45-2.02-4.69-1.53-5.86.38.19.11.56.35.75.46.26-.42,1.8-2.22,4.67-1.01.17.07.22.12.43.17Z"/>
    <circle class="cls-1" cx="266.8" cy="314.19" r="1.19"/>
    <path class="cls-1" d="m265.04,316.23c-.82-2.35,1.47-4.72,3.7-4.57-.02.22-.04.66-.06.88-.49-.03-2.85.19-3.53,3.23-.04.18-.03.25-.11.45Z"/>
    <circle class="cls-1" cx="263.46" cy="321.12" r=".49"/>
    <circle class="cls-1" cx="265.98" cy="319.81" r=".49"/>
    <path class="cls-6" d="m303.47,327.5c-2.21-5.21-8.23-7.63-13.44-5.42-5.21,2.22-7.63,8.23-5.41,13.44s12.33,9.77,12.33,9.77c0,0,8.74-12.58,6.52-17.79Z"/>
    <path class="cls-5" d="m273.17,312.26h0l-4.16-8.04c-.61-1.18-1.47-2.16-2.46-2.91l-.94-1.81-1.21.63c-2.2-.83-4.72-.76-6.98.4l-4.74,2.45c-4.22,2.18-5.87,7.37-3.69,11.59l4.92,9.52h0l4.05,7.82,1.38-.72-4.85-9.38h-.02s-1.84-3.54-1.84-3.54c-.43-.83-.69-1.7-.81-2.58l7.04-3.54c2.63-1.32,4.06-4.23,3.51-7.13.06,0,.12,0,.17,0,1.27,1.37,3.19,1.97,5.01,1.54.96.71,1.78,1.63,2.36,2.76l1.88,3.64h-.02s4.85,9.39,4.85,9.39l1.38-.72-4.85-9.38Z"/>
  </g>
  <g id="cat">
    <path class="cls-6" d="m1094.37,212.67c-2.47-109.04-91.59-196.67-201.19-196.67-68.51,0-129,34.25-165.35,86.55l-35.89-42.3v41.45c-16.71,1.26-32.28,7.48-45.67,17.42l-31.8-37.47v75.65c-4.18,8.14-7.52,16.94-9.91,26.23h-138.72c-9.32,0-16.88,7.56-16.88,16.88h0c0,9.32,7.56,16.88,16.88,16.88h266.26v47.91c0,9.32,7.56,16.88,16.88,16.88h0c9.32,0,16.88-7.56,16.88-16.88v-47.91h294.84v257.28c0,9.32,7.56,16.88,16.88,16.88h0c9.32,0,16.88-7.56,16.88-16.88V213.83c0-.39-.03-.78-.06-1.16Z"/>
    <path class="cls-9" d="m665.28,159.39s-6.96,5.06-14.86,4.29c-7.9-.77-13.75-7.08-13.75-7.08,0,0,6.96-5.06,14.86-4.29s13.75,7.08,13.75,7.08Z"/>
    <path class="cls-6" d="m651.68,150.81s2.54,3.5,2.16,7.47c-.39,3.97-3.56,6.92-3.56,6.92,0,0-2.54-3.5-2.16-7.47.39-3.97,3.56-6.92,3.56-6.92Z"/>
    <path class="cls-9" d="m702.39,134.4s-1.16,8.53-7.18,13.7c-6.02,5.17-14.62,5.03-14.62,5.03,0,0,1.16-8.53,7.18-13.7,6.02-5.17,14.62-5.03,14.62-5.03Z"/>
    <path class="cls-6" d="m686.78,138.29s4.29.58,6.89,3.61c2.6,3.03,2.53,7.35,2.53,7.35,0,0-4.29-.58-6.89-3.61s-2.53-7.35-2.53-7.35Z"/>
  </g>
</svg>